# xmcd
#
# Track frame offsets:
#	150
#	18008
#	43089
#	60640
#	81610
#	95728
#	112299
#	130443
#	148014
#	166892
#	180806
#	197880
#	217327
#	238419
#	256547
#	270985
#	295305
#
# Disc length: 4137 seconds
#
# Revision: 0
# Processed by: cddbd v1.5.1PL0 Copyright (c) Steve Scherf et al.
# Submitted via: dBpowerAMP V4.0
#
DISCID=05102711
DTITLE=ty - ty
DYEAR=2004
DGENRE=Acid Jazz
TTITLE0=红
TTITLE1=怀
TTITLE2=映
TTITLE3=搞活
TTITLE4=搞活艰苦
TTITLE5=图样
TTITLE6=共和国
TTITLE7=感到飞过海的
TTITLE8=部分
TTITLE9=风格
TTITLE10=风格
TTITLE11=如同用途
TTITLE12=而特
TTITLE13=犹太人
TTITLE14=如同
TTITLE15=同样
TTITLE16=头发
EXTD=wd
EXTT0=
EXTT1=
EXTT2=
EXTT3=
EXTT4=
EXTT5=
EXTT6=
EXTT7=
EXTT8=
EXTT9=
EXTT10=
EXTT11=
EXTT12=
EXTT13=
EXTT14=
EXTT15=
EXTT16=
PLAYORDER=
